<?xml version="1.0" encoding="utf-8"?>
<!-- Generator: Adobe Illustrator 16.0.0, SVG Export Plug-In . SVG Version: 6.00 Build 0)  -->
<!DOCTYPE svg PUBLIC "-//W3C//DTD SVG 1.1//EN" "http://www.w3.org/Graphics/SVG/1.1/DTD/svg11.dtd">
<svg version="1.1" id="Layer_1" xmlns="http://www.w3.org/2000/svg" xmlns:xlink="http://www.w3.org/1999/xlink" x="0px" y="0px"
	 width="104px" height="27px" viewBox="0 0 104 27" enable-background="new 0 0 104 27" xml:space="preserve">
<g>
	<path fill="#FFFFFF" d="M15.911,0.361h4.896v26.28h-5.184L5.218,8.785v17.856H0.322V0.361h5.184l10.404,17.892V0.361z"/>
	<path fill="#FFFFFF" d="M27.574,0.361h4.896v26.28h-4.896V0.361z"/>
	<path fill="#FFFFFF" d="M50.326,26.641H43.99l-7.776-26.28h4.896l6.048,21.528l6.048-21.528h4.932L50.326,26.641z"/>
	<path fill="#FFFFFF" d="M65.086,0.361h6.372l8.064,26.28h-4.716l-2.232-7.272h-8.64l-2.196,7.272h-4.752L65.086,0.361z
		 M68.254,5.005L65.05,15.661h6.408L68.254,5.005z"/>
	<path fill="#FFFFFF" d="M98.782,0.361h4.896v26.28h-5.184L88.09,8.785v17.856h-4.896V0.361h5.184l10.404,17.892V0.361z"/>
</g>
</svg>
